<svg xmlns="http://www.w3.org/2000/svg" viewBox="0 0 199.48 197.68">
  <title>Logo</title>
  <g id="7c40082b-3245-4637-85a3-5d50b7bcffd1" data-name="Layer 2">
    <g id="90f628c5-287d-4e61-b988-c03e28a7e544" data-name="Layer 1">
      <g>
        <path d="M123.33,46.43c-.29.72-.56,1.47-.9,2.18a7.08,7.08,0,0,1-.88,1.41,2.07,2.07,0,0,1-.94.71c-2,.56-4,.21-5.07-1.94a2.54,2.54,0,0,1,.16-2.51,3.4,3.4,0,0,1,3.63-1.73A8.14,8.14,0,0,1,123.07,46,1.35,1.35,0,0,1,123.33,46.43Z" fill="#0f6735"/>
        <path d="M146.51,53.91a2.73,2.73,0,0,1-2.6,2.85,6.09,6.09,0,0,1-1.65-.06,3,3,0,0,1-.26-5.85,4,4,0,0,1,2.57.14A2.69,2.69,0,0,1,146.51,53.91Z" fill="#0f6735"/>
        <g>
          <path d="M63,.05a1.05,1.05,0,0,0,.07.45c.29.38.61.74.93,1.1a114.22,114.22,0,0,1,21.1,33.53,129.19,129.19,0,0,1,7.76,26.39c.9,5,1.52,10,1.93,15a137.59,137.59,0,0,1,.32,14.63c-.07,2.8-.34,5.59-.48,8.38a23.93,23.93,0,0,0,0,2.63,2.48,2.48,0,0,0,1,1.83.8.8,0,0,0,.88.06c.18-.16.36-.31.53-.48A28.18,28.18,0,0,0,100.85,99c1.15-1.73,2.24-3.5,3.34-5.26s2.34-3.81,3.54-5.71c.43-.67.92-1.31,1.41-1.94a1.43,1.43,0,0,1,1.25-.59,13.47,13.47,0,0,1,1.9.21.63.63,0,0,1,.46.91,29.86,29.86,0,0,1-2.9,5q-1.61,2.24-3.32,4.41c-1.73,2.21-3.4,4.45-4.91,6.81-.3.47-.58,1-.86,1.44a3.39,3.39,0,0,0-.25,2.78,8.31,8.31,0,0,0,.35.89,2.92,2.92,0,0,0,1.7,1.6,8.16,8.16,0,0,0,2.57.54,22.57,22.57,0,0,1,6.56,1.27,16.54,16.54,0,0,0,1.62.44,3,3,0,0,0,2.88-.77l.7-.65c8.09-7.27,16.27-14.44,24.76-21.25A55.56,55.56,0,0,1,150,83.5c1.62-.87,3.24-1.74,4.89-2.54q18.34-8.9,37.4-16.14a15.33,15.33,0,0,1,3.91-1.08,3.35,3.35,0,0,1,3,1.07.88.88,0,0,1,.24.88A8.58,8.58,0,0,1,197,69.47c-.65.59-1.34,1.14-2,1.68-7.33,5.7-14.53,11.53-21.51,17.66a265.71,265.71,0,0,0-23.9,23.58q-5.09,5.75-9.72,11.89a30.26,30.26,0,0,1-3.32,3.79,23.63,23.63,0,0,1-2.4,2,6,6,0,0,1-3.34,1.19l-3.84.12c-.64,0-1.28,0-1.92,0a1.09,1.09,0,0,0-.61.35,3.73,3.73,0,0,0-.55.78,13.14,13.14,0,0,0-1.46,4.29c-.31,1.89-.61,3.79-.88,5.69a13.38,13.38,0,0,1-2.91,6.73c-1.42,1.73-2.76,3.53-4.19,5.25a64.29,64.29,0,0,1-9.15,9.14,4.28,4.28,0,0,0-1.32,1.66,37.07,37.07,0,0,1-7.06,10.49c-3.06,3.27-6.11,6.55-9.3,9.7a103,103,0,0,1-11.05,9.58,17.77,17.77,0,0,1-1.77,1.23,9.5,9.5,0,0,1-6.69,1.19,6.37,6.37,0,0,1-.7-.16c-1.69-.54-2.16-1.11-2.37-2.89a17.72,17.72,0,0,1,.59-6.18,33.21,33.21,0,0,1,2-5.65c1.05-2.42,2.09-4.84,3.17-7.25a41.52,41.52,0,0,0,2.73-9.17c.15-.78.29-1.57.43-2.36a.75.75,0,0,0-.49-.74l-.92-.25a21.85,21.85,0,0,1-10.23-6,8.15,8.15,0,0,0-.77-.64l-5,1.61c-5.93,1.91-11.83,3.91-17.81,5.67a164.82,164.82,0,0,1-16.29,4,77.67,77.67,0,0,1-7.85,1,20.23,20.23,0,0,1-5.25-.41,5.25,5.25,0,0,1-3.23-1.91A11.71,11.71,0,0,1,4,161.93,26.35,26.35,0,0,1,3,156.75c-.26-3.19-.74-6.35-1.2-9.52-.48-3.32-1-6.63-1.53-10a23.8,23.8,0,0,1-.19-2.39,77,77,0,0,1,0-9.35,83.67,83.67,0,0,1,1.26-10.23,27.2,27.2,0,0,1,4.51-10.58c.23-.33.45-.66.67-1,0-.06.07-.14.16-.31v-1.82a16.56,16.56,0,0,1,4-10.29,13.25,13.25,0,0,1,9.35-4.8c1-.09,2.08-.08,3.12-.15,1.36-.09,2.71-.18,4.06-.35A7.8,7.8,0,0,0,31.6,84a1.58,1.58,0,0,0,.56-1.71,13.23,13.23,0,0,0-1.6-3.73c-.6-1-1.24-1.86-1.86-2.79S27.43,73.94,26.83,73a11.75,11.75,0,0,1-1.53-3.5c-.06-.23-.13-.46-.17-.7a4.69,4.69,0,0,1,1.58-4.75c.48-.42,1-.84,1.48-1.23a17.41,17.41,0,0,0,3.35-3.41q3.21-4.19,6.48-8.33a114.35,114.35,0,0,1,9-10.31,14.34,14.34,0,0,0,3.42-5.71A21.1,21.1,0,0,0,51.59,28c0-2.56-.12-5.12-.14-7.68s0-5,0-7.44a27.34,27.34,0,0,1,1.37-7.28,6.77,6.77,0,0,1,3.26-4c.76-.44,1.57-.78,2.35-1.2A.91.91,0,0,0,58.64,0H63ZM37.62,129.22a20.24,20.24,0,0,0-13.12,4.42,11.55,11.55,0,0,0-4.35,6.93c-.14.78-.33,1.55-.43,2.35a23.18,23.18,0,0,1-.56,3,11,11,0,0,1-1.41,3.28,18.43,18.43,0,0,1-2.63,3.09,16.88,16.88,0,0,0-2.39,3,2.24,2.24,0,0,0-.16,2.26,6.07,6.07,0,0,0,2,2.63c1.51,1.08,3.16,1.56,4.92.58A37.57,37.57,0,0,0,23,158.69a70.57,70.57,0,0,0,9.22-7.61c1.58-1.58,3.11-3.2,4.57-4.9a89.47,89.47,0,0,0,7.43-10c.51-.81,1-1.64,1.44-2.48a1,1,0,0,0-.21-1.32c-.55-.57-1.11-1.15-1.7-1.68a4.24,4.24,0,0,0-2.12-1,13.7,13.7,0,0,0-4-.43Zm71.09,13a5.61,5.61,0,0,0-.42-1.35,2.29,2.29,0,0,0-3.16-.69l-.19.13c-1.29,1.07-2.58,2.15-3.78,3.31-2.69,2.61-5.34,5.27-7.81,8.11q-3.15,3.62-6.1,7.39Q82.4,165.37,78,171.94c-.84,1.26-1.75,2.48-2.59,3.74q-1.66,2.49-3.25,5a11,11,0,0,0-1.38,4.54,1,1,0,0,0,1.18,1.1,4.63,4.63,0,0,0,2-.76A13.92,13.92,0,0,0,77,182.92c1.28-1.43,2.55-2.86,3.8-4.31,1.57-1.81,3.11-3.64,4.67-5.46,2.13-2.49,4.29-5,6.37-7.48,2.28-2.78,4.47-5.62,6.71-8.44,3.24-4.06,6.19-8.33,9.11-12.62a5.78,5.78,0,0,0,.62-1,12.44,12.44,0,0,0,.39-1.4ZM36.57,123.9a26.31,26.31,0,0,0,7.35-.72A10.92,10.92,0,0,0,48.37,121a8.86,8.86,0,0,0,.9-.79c1.62-1.65,3.26-3.29,4.84-5a9.17,9.17,0,0,0,1.22-1.76,4.58,4.58,0,0,0-.69-5.33c-.45-.45-.87-.94-1.36-1.35a10.92,10.92,0,0,0-4.14-2.31,5,5,0,0,0-3.92.44,7,7,0,0,0-2.14,1.88c-.68.88-1.32,1.8-2,2.69a8.84,8.84,0,0,1-5,3.49c-.54.13-1.07.31-1.6.49s-1,.37-1.58.57a3.15,3.15,0,0,0-1.83,1.78,9,9,0,0,0-.73,4.2,4.73,4.73,0,0,0,1.61,3.35,1.91,1.91,0,0,0,1.29.55h3.35ZM70.23,69.16h0V65.8a24.17,24.17,0,0,0-.64-4.5,4.54,4.54,0,0,0-.45-1.36,3,3,0,0,0-2.6-1.85H64.86a7,7,0,0,0-1.19.12,4.75,4.75,0,0,0-.9.32,1,1,0,0,0-.63.93,10.88,10.88,0,0,1-.53,3.77,16.83,16.83,0,0,1-2.54,4.33c-.83,1.07-1.72,2.1-2.57,3.16a18.69,18.69,0,0,0-2.71,4.5,5.37,5.37,0,0,0-.41,2.1,1.05,1.05,0,0,0,.78,1.07,11.61,11.61,0,0,0,1.14.37,27.35,27.35,0,0,0,7.81,1,12.48,12.48,0,0,0,3.33-.17c.76-.82,1.55-1.61,2.27-2.46a6.06,6.06,0,0,0,1.59-4.39,28.45,28.45,0,0,1-.07-3.58Zm47,59.27a10.39,10.39,0,0,0,.11,1.19.52.52,0,0,0,.48.46,7.47,7.47,0,0,0,1.66,0,9.47,9.47,0,0,0,3.72-1.56,20.67,20.67,0,0,0,3.76-3.3c1.53-1.84,3.13-3.62,4.77-5.35,1.81-1.91,3.7-3.75,5.55-5.62.84-.85,1.71-1.68,2.5-2.57a11.84,11.84,0,0,0,2.64-4.5,5.76,5.76,0,0,0,.2-2.82.55.55,0,0,0-.5-.45,2.56,2.56,0,0,0-.71,0,13.58,13.58,0,0,0-6.6,3.17c-.71.64-1.42,1.29-2.09,2-2.42,2.43-4.86,4.84-7.23,7.32-2,2.08-3.87,4.23-5.79,6.37-.53.59-1,1.24-1.48,1.87a2.27,2.27,0,0,0-.46.83,11.6,11.6,0,0,0-.52,3Zm-68.92-41a24.36,24.36,0,0,0-3.8.27,5.16,5.16,0,0,0-3.85,3.22,7.38,7.38,0,0,0-.43,1.61A3.13,3.13,0,0,0,41.73,96c2.23,1.24,4.47,2.46,6.74,3.63a16.08,16.08,0,0,0,2.68,1.05,4.46,4.46,0,0,0,4.66-1,19.45,19.45,0,0,0,1.49-1.56c.72-.85,1.42-1.72,2.08-2.62A9.57,9.57,0,0,0,60.85,93a2.59,2.59,0,0,0-1.3-3.43l-.24-.09a9.56,9.56,0,0,0-1.13-.37c-1.46-.4-2.91-.85-4.39-1.15a18.57,18.57,0,0,0-5.47-.59Z" fill="#0f6735"/>
          <path d="M37.62,129.22a13.7,13.7,0,0,1,4,.43,4.24,4.24,0,0,1,2.12,1c.59.54,1.15,1.11,1.7,1.68a1,1,0,0,1,.21,1.32c-.46.84-.93,1.68-1.44,2.48a89.47,89.47,0,0,1-7.43,10c-1.45,1.7-3,3.32-4.57,4.9A70.57,70.57,0,0,1,23,158.69a37.57,37.57,0,0,1-3.47,2.12c-1.76,1-3.41.5-4.92-.58a6.07,6.07,0,0,1-2-2.63,2.24,2.24,0,0,1,.16-2.26,16.88,16.88,0,0,1,2.39-3,18.43,18.43,0,0,0,2.63-3.09A11,11,0,0,0,19.19,146a23.18,23.18,0,0,0,.56-3c.1-.79.29-1.57.43-2.35a11.55,11.55,0,0,1,4.35-6.93A20.24,20.24,0,0,1,37.62,129.22Z" fill="#70ba47"/>
          <path d="M108.71,142.21a12.46,12.46,0,0,1-.4,1.39,5.78,5.78,0,0,1-.62,1c-2.92,4.29-5.88,8.56-9.11,12.62-2.24,2.81-4.43,5.66-6.71,8.44-2.08,2.53-4.24,5-6.37,7.48-1.56,1.82-3.1,3.65-4.67,5.46-1.25,1.45-2.53,2.88-3.8,4.31a13.92,13.92,0,0,1-3.08,2.64,4.63,4.63,0,0,1-2,.76,1,1,0,0,1-1.18-1.1,11,11,0,0,1,1.38-4.53q1.59-2.54,3.25-5c.84-1.26,1.75-2.48,2.59-3.74q4.4-6.57,9.25-12.82c2-2.52,4-5,6.1-7.39,2.47-2.84,5.11-5.5,7.81-8.11,1.2-1.17,2.49-2.24,3.78-3.31a2.29,2.29,0,0,1,3.22.37l.13.19A5.61,5.61,0,0,1,108.71,142.21Z" fill="#70ba47"/>
          <path d="M36.57,123.89H33.22a1.91,1.91,0,0,1-1.29-.55A4.73,4.73,0,0,1,30.32,120a9,9,0,0,1,.73-4.2A3.15,3.15,0,0,1,32.88,114c.52-.2,1-.39,1.58-.57s1.06-.37,1.6-.49a8.84,8.84,0,0,0,5-3.49c.68-.88,1.32-1.8,2-2.69a7,7,0,0,1,2.14-1.88,5,5,0,0,1,3.92-.44,10.92,10.92,0,0,1,4.14,2.31c.49.41.91.89,1.36,1.35a4.58,4.58,0,0,1,.69,5.33,9.17,9.17,0,0,1-1.22,1.76c-1.58,1.69-3.22,3.33-4.84,5a8.86,8.86,0,0,1-.9.79,10.92,10.92,0,0,1-4.45,2.21A26.31,26.31,0,0,1,36.57,123.89Z" fill="#70ba47"/>
          <path d="M70.23,69.16c0,1.2-.06,2.4,0,3.6a6.06,6.06,0,0,1-1.59,4.39c-.71.85-1.51,1.64-2.27,2.46a12.48,12.48,0,0,1-3.33.17,27.35,27.35,0,0,1-7.81-1,11.61,11.61,0,0,1-1.14-.37,1.05,1.05,0,0,1-.78-1.07,5.37,5.37,0,0,1,.41-2.1,18.69,18.69,0,0,1,2.71-4.5c.85-1.06,1.74-2.09,2.57-3.16a16.83,16.83,0,0,0,2.54-4.33,10.88,10.88,0,0,0,.53-3.77,1,1,0,0,1,.63-.93,4.75,4.75,0,0,1,.9-.32,7,7,0,0,1,1.19-.12h1.68A3,3,0,0,1,69.07,60a4.54,4.54,0,0,1,.45,1.36,24.17,24.17,0,0,1,.64,4.5v3.36h0Z" fill="#70ba47"/>
          <path d="M117.24,128.43a11.6,11.6,0,0,1,.55-3,2.27,2.27,0,0,1,.46-.83c.48-.64,1-1.28,1.48-1.87,1.91-2.14,3.81-4.3,5.79-6.37,2.37-2.48,4.81-4.89,7.23-7.32.68-.68,1.38-1.33,2.09-2a13.58,13.58,0,0,1,6.6-3.17,2.56,2.56,0,0,1,.71,0,.55.55,0,0,1,.5.45,5.76,5.76,0,0,1-.2,2.82,11.84,11.84,0,0,1-2.64,4.5c-.8.89-1.66,1.72-2.5,2.57-1.85,1.87-3.74,3.7-5.55,5.62-1.64,1.74-3.24,3.52-4.77,5.35a20.67,20.67,0,0,1-3.76,3.3,9.47,9.47,0,0,1-3.72,1.56,7.47,7.47,0,0,1-1.66,0,.52.52,0,0,1-.48-.46A10.41,10.41,0,0,1,117.24,128.43Z" fill="#70ba47"/>
          <path d="M48.32,87.41a18.57,18.57,0,0,1,5.45.56c1.48.29,2.93.75,4.39,1.15a9.56,9.56,0,0,1,1.13.37,2.59,2.59,0,0,1,1.63,3.28q0,.12-.09.24a9.57,9.57,0,0,1-1.47,2.46c-.67.89-1.37,1.77-2.08,2.62a19.45,19.45,0,0,1-1.49,1.56,4.46,4.46,0,0,1-4.66,1,16.08,16.08,0,0,1-2.66-1C46.2,98.43,44,97.21,41.73,96a3.13,3.13,0,0,1-1.5-3.47,7.38,7.38,0,0,1,.43-1.61,5.16,5.16,0,0,1,3.85-3.22A24.36,24.36,0,0,1,48.32,87.41Z" fill="#70ba47"/>
        </g>
      </g>
    </g>
  </g>
</svg>
